<svg width="59" height="70" viewBox="0 0 59 70" fill="none" xmlns="http://www.w3.org/2000/svg">
<path d="M29.0716 31.6612C20.1747 31.6612 12.9364 24.864 12.9364 16.5089C12.9364 8.154 20.1747 1.35681 29.0716 1.35681C37.9685 1.35681 45.2068 8.154 45.2068 16.5089C45.2068 24.864 37.9685 31.6612 29.0716 31.6612ZM29.0716 5.18537C22.5626 5.18537 17.2672 10.265 17.2672 16.5089C17.2672 22.7527 22.5626 27.8326 29.0716 27.8326C35.5806 27.8326 40.876 22.7527 40.876 16.5089C40.876 10.265 35.5806 5.18537 29.0716 5.18537Z" fill="#00BFA6"/>
<path d="M29.1073 31.2998C20.1907 31.2998 12.9364 24.2793 12.9364 15.6498C12.9364 7.02046 20.1907 0 29.1073 0C38.0239 0 45.2782 7.02046 45.2782 15.6498C45.2782 24.2793 38.0239 31.2998 29.1073 31.2998ZM29.1073 3.95432C22.5839 3.95432 17.2768 9.20084 17.2768 15.6498C17.2768 22.0987 22.5839 27.3455 29.1073 27.3455C35.6306 27.3455 40.9378 22.0987 40.9378 15.6498C40.9378 9.20084 35.6306 3.95432 29.1073 3.95432Z" fill="#00BFA6"/>
<g filter="url(#filter0_d_16_108)">
<path d="M44.8132 62.0001H14.1868C11.486 61.9973 8.89674 61.0187 6.987 59.2788C5.07726 57.539 4.00304 55.1801 4 52.7196V25.3507C4.00208 23.6661 4.73751 22.0511 6.04496 20.86C7.35241 19.6688 9.12508 18.9988 10.9741 18.9968H48.0259C49.8749 18.9988 51.6476 19.6688 52.955 20.86C54.2625 22.0511 54.9979 23.6661 55 25.3507V52.7196C54.997 55.1801 53.9227 57.539 52.013 59.2788C50.1033 61.0187 47.514 61.9973 44.8132 62.0001Z" fill="white"/>
</g>
<path d="M35.2984 37.1027C35.2992 36.1362 35.0172 35.1869 34.4815 34.3527C33.9457 33.5185 33.1755 32.8295 32.2503 32.3566C31.325 31.8837 30.2781 31.6441 29.2174 31.6624C28.1567 31.6806 27.1205 31.9562 26.2155 32.4606C25.3106 32.9651 24.5696 33.6802 24.0689 34.5322C23.5681 35.3843 23.3257 36.3426 23.3667 37.3084C23.4076 38.2743 23.7304 39.2127 24.3018 40.027C24.8732 40.8414 25.6726 41.5023 26.6175 41.9416V50.4485H32.0431V41.9416C33.0226 41.4868 33.845 40.7942 34.4195 39.9402C34.994 39.0863 35.2981 38.1043 35.2984 37.1027Z" fill="#2F2E41"/>
<path d="M35.2984 37.1027C35.2992 36.1362 35.0172 35.1869 34.4815 34.3527C33.9457 33.5185 33.1755 32.8295 32.2503 32.3566C31.325 31.8837 30.2781 31.6441 29.2174 31.6624C28.1567 31.6806 27.1205 31.9562 26.2155 32.4606C25.3106 32.9651 24.5696 33.6802 24.0689 34.5322C23.5681 35.3843 23.3257 36.3426 23.3667 37.3084C23.4076 38.2743 23.7304 39.2127 24.3018 40.027C24.8732 40.8414 25.6726 41.5023 26.6175 41.9416V50.4485H32.0431V41.9416C33.0226 41.4868 33.845 40.7942 34.4195 39.9402C34.994 39.0863 35.2981 38.1043 35.2984 37.1027Z" fill="#2F2E41"/>
<defs>
<filter id="filter0_d_16_108" x="0" y="18.9968" width="59" height="51.0032" filterUnits="userSpaceOnUse" color-interpolation-filters="sRGB">
<feFlood flood-opacity="0" result="BackgroundImageFix"/>
<feColorMatrix in="SourceAlpha" type="matrix" values="0 0 0 0 0 0 0 0 0 0 0 0 0 0 0 0 0 0 127 0" result="hardAlpha"/>
<feOffset dy="4"/>
<feGaussianBlur stdDeviation="2"/>
<feComposite in2="hardAlpha" operator="out"/>
<feColorMatrix type="matrix" values="0 0 0 0 0 0 0 0 0 0 0 0 0 0 0 0 0 0 0.25 0"/>
<feBlend mode="normal" in2="BackgroundImageFix" result="effect1_dropShadow_16_108"/>
<feBlend mode="normal" in="SourceGraphic" in2="effect1_dropShadow_16_108" result="shape"/>
</filter>
</defs>
</svg>
